<svg width="17" height="14" viewBox="0 0 17 14" fill="none" xmlns="http://www.w3.org/2000/svg">
<path d="M15.7654 3.02844C15.0454 2.12844 14.0554 1.45344 12.8404 0.913438C11.5804 0.418438 10.2304 0.148438 8.79043 0.148438C7.71043 0.148438 6.63043 0.283438 5.64043 0.598438C4.60543 0.868438 3.75043 1.31844 3.03043 1.81344C2.31043 2.35344 1.72543 2.93844 1.32043 3.65844C0.87043 4.37844 0.69043 5.14344 0.69043 5.90844C0.69043 6.80844 0.96043 7.66344 1.50043 8.47344C2.04043 9.28344 2.80543 9.91344 3.75043 10.4534C3.70543 10.6784 3.61543 10.9034 3.52543 11.1284C3.43543 11.3534 3.34543 11.5334 3.30043 11.6684C3.21043 11.8034 3.12043 11.9834 2.98543 12.1184C2.85043 12.2984 2.76043 12.3884 2.71543 12.4784C2.67043 12.5684 2.53543 12.6584 2.40043 12.8384C2.26543 13.0184 2.17543 13.1084 2.13043 13.1534C2.13043 13.1534 2.08543 13.1984 2.04043 13.2434C1.95043 13.2884 1.95043 13.2884 1.95043 13.2884L1.86043 13.3784C1.81543 13.4234 1.81543 13.4684 1.81543 13.4684C1.81543 13.4684 1.81543 13.5134 1.81543 13.5584C1.81543 13.6034 1.81543 13.6484 1.81543 13.6484C1.86043 13.7384 1.90543 13.8284 1.99543 13.9184C2.08543 13.9634 2.17543 14.0084 2.26543 14.0084C2.67043 13.9634 2.98543 13.9184 3.30043 13.8284C4.87543 13.4234 6.27043 12.7034 7.44043 11.6234C7.89043 11.6684 8.34043 11.7134 8.74543 11.7134C10.2304 11.7134 11.5804 11.4434 12.7954 10.9484C14.0554 10.4534 15.0004 9.73344 15.7204 8.83344C16.4404 7.93344 16.8004 6.98844 16.8004 5.90844C16.8454 4.87344 16.4854 3.88344 15.7654 3.02844Z" fill="#EFE1D1"/>
</svg>
