<svg width="19" height="53" viewBox="0 0 19 53" fill="none" xmlns="http://www.w3.org/2000/svg">
<path d="M15.5341 26.9342C15.5341 27.0692 15.4891 27.0692 15.4891 27.1142L9.77406 32.8742C9.72906 32.9192 9.72906 32.9192 9.59406 32.9192C9.45906 32.9192 9.45906 32.8742 9.41406 32.8742L8.73906 32.1992C8.69406 32.1542 8.69406 32.1542 8.69406 32.0192C8.69406 31.8842 8.73906 31.8842 8.73906 31.8392L12.8791 27.6992H2.79906C2.75406 27.6992 2.70906 27.6992 2.70906 27.6992C2.66406 27.6542 2.66406 27.6092 2.66406 27.5192V26.3942C2.66406 26.3042 2.70906 26.2142 2.70906 26.1692C2.70906 26.1692 2.75406 26.1692 2.79906 26.1692H12.8791L8.73906 22.0292C8.69406 21.9842 8.69406 21.9842 8.69406 21.8492C8.69406 21.7142 8.73906 21.7142 8.73906 21.6692L9.41406 20.9942C9.45906 20.9492 9.45906 20.9492 9.59406 20.9492C9.72906 20.9492 9.72906 20.9942 9.77406 20.9942L15.4891 26.7542C15.4891 26.7992 15.5341 26.7992 15.5341 26.9342Z" fill="#331D2C"/>
</svg>
